<?xml version="1.0" encoding="utf-8"?>
<!-- Generator: Adobe Illustrator 25.2.1, SVG Export Plug-In . SVG Version: 6.00 Build 0)  -->
<svg version="1.1" id="Layer_1" xmlns="http://www.w3.org/2000/svg" xmlns:xlink="http://www.w3.org/1999/xlink" x="0px" y="0px"
	 viewBox="0 0 505 505" style="enable-background:new 0 0 505 505;" xml:space="preserve">
<style type="text/css">
	.st0{fill:#006837;}
</style>
<path class="st0" d="M246.2,31.9v76.7h-26.4V31.9H246.2z M169.6,55.4v53.2H196V55.4H169.6z M383.5,121.9v255.3H130V121.9H383.5z
	 M343.7,269.5c0-20.3-16.5-36.8-36.8-36.8c-5.3,0-10.3,1.1-14.9,3.1c2.6,5.3,4.5,10.9,5.8,16.8h-51.1V201h-35.3v-16.2h-44.2V229
	h44.2v-16.2h23.6v51.5h64.6c0.1,1.7,0.2,3.4,0.2,5.2s-0.1,3.5-0.2,5.2h-88.2v-16.2h-44.2v44.2h44.2v-16.2h86.5
	c-1.3,5.9-3.3,11.5-5.8,16.8c4.6,2,9.6,3.1,14.9,3.1C327.2,306.3,343.7,289.8,343.7,269.5z M396.7,185.7h52.8v-26.6h-52.8V185.7z
	 M270,55.4v53.2h26.4V55.4H270z M320.1,8.4v100.2h26.4V8.4H320.1z M167,390.5v106.1h26.4V390.5H167z M217.1,390.5v53.2h26.4v-53.2
	H217.1z M267.3,390.5v76.7h26.4v-76.7H267.3z M317.5,390.5v53.2h26.4v-53.2H317.5z M396.7,236.3h105.8v-26.6H396.7V236.3z
	 M396.7,286.8h52.8v-26.6h-52.8V286.8z M396.7,337.3H479v-26.6h-82.2V337.3z M20.1,185.7h94v-26.6h-94V185.7z M2.5,236.3h111.6
	v-26.6H2.5L2.5,236.3z M61.3,286.8h52.8v-26.6H61.3V286.8z M43.7,337.3h70.5v-26.6H43.7V337.3z"/>
</svg>
